<?xml version="1.0" encoding="UTF-8" standalone="no"?><!DOCTYPE svg PUBLIC "-//W3C//DTD SVG 1.1//EN" "http://www.w3.org/Graphics/SVG/1.1/DTD/svg11.dtd"><svg width="100%" height="100%" viewBox="0 0 175 175" version="1.1" xmlns="http://www.w3.org/2000/svg" xmlns:xlink="http://www.w3.org/1999/xlink" xml:space="preserve" xmlns:serif="http://www.serif.com/" style="fill-rule:evenodd;clip-rule:evenodd;stroke-linejoin:round;stroke-miterlimit:2;"><path id="Paper" d="M133.899,37.449c-4.717,0 -8.554,3.837 -8.554,8.553l0,40.888c0,1.046 -0.847,1.894 -1.893,1.894c-1.046,-0 -1.893,-0.848 -1.893,-1.894l-0,-60.985c-0,-5.529 -4.498,-10.027 -10.025,-10.027c-2.819,0 -5.389,1.057 -7.236,2.976c-1.8,1.869 -2.79,4.387 -2.79,7.087l0,60.949c0,1.046 -0.848,1.894 -1.893,1.894c-1.046,-0 -1.894,-0.848 -1.894,-1.894l0,-60.192c0,-5.966 -4.854,-10.82 -10.82,-10.82c-6.773,0 -10.82,5.848 -10.82,11.501l0,59.511c0,1.046 -0.848,1.894 -1.893,1.894c-1.046,-0 -1.893,-0.848 -1.893,-1.894l-0,-48.738c-0,-5.528 -4.498,-10.025 -10.026,-10.025c-6.276,0 -10.026,5.422 -10.026,10.663l-0,73.963l22.263,0c8.884,0 17.314,3.86 23.126,10.59c0.683,0.792 0.596,1.987 -0.195,2.671c-0.358,0.308 -0.799,0.46 -1.237,0.46c-0.532,-0 -1.06,-0.222 -1.434,-0.656c-5.092,-5.896 -12.477,-9.278 -20.26,-9.278l-24.156,0c-0.087,0 -0.17,-0.014 -0.254,-0.025c-0.031,-0.005 -0.064,-0.004 -0.095,-0.01c-0.159,-0.03 -0.31,-0.082 -0.453,-0.149c-0.033,-0.015 -0.064,-0.035 -0.097,-0.053c-0.126,-0.068 -0.243,-0.149 -0.35,-0.243c-0.015,-0.013 -0.033,-0.02 -0.048,-0.033l-9.387,-8.823c-3.469,-3.261 -7.868,-4.885 -12.262,-4.885c-4.558,0 -9.111,1.748 -12.616,5.231c-1.783,1.771 -1.846,4.608 -0.142,6.458l35.553,38.573c14.262,15.809 28.751,22.252 50.023,22.252c23.285,-0 42.229,-19.14 42.229,-42.668l0,-85.743c0,-4.349 -2.997,-8.973 -8.552,-8.973Z" style="fill:#00dfba;fill-rule:nonzero;"/></svg>