<?xml version="1.0" encoding="UTF-8" standalone="no"?><!DOCTYPE svg PUBLIC "-//W3C//DTD SVG 1.1//EN" "http://www.w3.org/Graphics/SVG/1.1/DTD/svg11.dtd"><svg width="100%" height="100%" viewBox="0 0 175 175" version="1.1" xmlns="http://www.w3.org/2000/svg" xmlns:xlink="http://www.w3.org/1999/xlink" xml:space="preserve" xmlns:serif="http://www.serif.com/" style="fill-rule:evenodd;clip-rule:evenodd;stroke-linejoin:round;stroke-miterlimit:2;"><g id="Rock"><path d="M116.45,90.929l-0,-25.278c-0,-6.938 -5.646,-12.583 -12.585,-12.583c-6.938,-0 -12.584,5.645 -12.584,12.583l0,24.58l22.197,0c1.067,0 2.073,0.256 2.972,0.698Z" style="fill:#fe2bf1;fill-rule:nonzero;"/><path d="M58.223,90.231l0,-25.533c0,-5.8 -4.719,-10.518 -10.518,-10.518c-5.799,0 -10.518,4.718 -10.518,10.518l0,31.465c4.591,-3.706 10.424,-5.932 16.769,-5.932l4.267,0Z" style="fill:#fe2bf1;fill-rule:nonzero;"/><path d="M131.945,116.518c-5.722,0 -10.717,-3.125 -13.401,-7.75c-3.472,8.621 -11.917,14.726 -21.767,14.726l-15.738,-0c7.43,4.547 12.399,12.738 12.399,22.069l0,7.088c0,1.045 -0.847,1.893 -1.893,1.893c-1.046,0 -1.893,-0.848 -1.893,-1.893l-0,-7.088c-0,-12.169 -9.9,-22.069 -22.07,-22.069l-0.337,-0c-1.046,-0 -1.894,-0.848 -1.894,-1.894c0.001,-1.045 0.848,-1.893 1.894,-1.893l29.532,0c10.848,0 19.673,-8.825 19.673,-19.672l-0,-3.045c-0,-1.639 -1.333,-2.972 -2.972,-2.972l-59.522,0c-7,0 -13.273,3.152 -17.487,8.107c-0.318,0.375 -0.628,0.755 -0.92,1.147c-0.121,0.161 -0.234,0.327 -0.35,0.491c-0.288,0.409 -0.567,0.823 -0.827,1.248c-0.085,0.138 -0.165,0.28 -0.247,0.421c-0.265,0.454 -0.517,0.915 -0.749,1.386c-0.039,0.078 -0.08,0.154 -0.118,0.232c-0.263,0.548 -0.501,1.108 -0.72,1.676c-0.028,0.074 -0.059,0.146 -0.086,0.22c-0.216,0.576 -0.405,1.162 -0.574,1.755c-0.021,0.075 -0.043,0.15 -0.064,0.225c-0.162,0.594 -0.3,1.197 -0.415,1.804c-0.014,0.079 -0.028,0.158 -0.042,0.237c-0.108,0.612 -0.194,1.229 -0.252,1.85c-0.007,0.072 -0.011,0.145 -0.017,0.216c-0.054,0.643 -0.088,1.29 -0.088,1.94c0,1.559 0.08,3.099 0.202,4.627c2.367,29.747 27.313,53.233 57.657,53.233l6.884,-0c26.417,-0 47.909,-21.492 47.909,-47.91l0,-15.78c-2.843,3.285 -7.032,5.375 -11.707,5.375Z" style="fill:#fe2bf1;fill-rule:nonzero;"/><path d="M87.495,65.81c-0,-7.026 -5.717,-12.742 -12.743,-12.742c-7.026,-0 -12.742,5.716 -12.742,12.742l-0,24.421l25.485,0l-0,-24.421Z" style="fill:#fe2bf1;fill-rule:nonzero;"/><path d="M131.945,71.518c-6.456,0 -11.709,5.252 -11.709,11.708l0,17.798c0,6.456 5.253,11.708 11.709,11.708c6.455,-0 11.707,-5.252 11.707,-11.708l0,-17.798c0,-6.456 -5.252,-11.708 -11.707,-11.708Z" style="fill:#fe2bf1;fill-rule:nonzero;"/></g></svg>