<?xml version="1.0" encoding="UTF-8" standalone="no"?><!DOCTYPE svg PUBLIC "-//W3C//DTD SVG 1.1//EN" "http://www.w3.org/Graphics/SVG/1.1/DTD/svg11.dtd"><svg width="100%" height="100%" viewBox="0 0 175 175" version="1.1" xmlns="http://www.w3.org/2000/svg" xmlns:xlink="http://www.w3.org/1999/xlink" xml:space="preserve" xmlns:serif="http://www.serif.com/" style="fill-rule:evenodd;clip-rule:evenodd;stroke-linejoin:round;stroke-miterlimit:2;"><g id="Scissors"><path d="M68.786,96.836l18.909,-0l0,-20.749c0,-4.373 1.851,-8.312 4.8,-11.107l7.246,-51.558c0.398,-2.84 -0.331,-5.666 -2.059,-7.957c-1.727,-2.291 -4.241,-3.772 -7.081,-4.171c-2.844,-0.398 -5.665,0.332 -7.956,2.058c-2.291,1.726 -3.773,4.241 -4.17,7.081l-10.026,68.881c-0.137,0.93 -0.937,1.62 -1.874,1.62c-0.942,-0 -1.737,-0.69 -1.874,-1.62l-10.068,-69.074c-0.398,-2.85 -1.879,-5.365 -4.17,-7.091c-2.291,-1.726 -5.112,-2.456 -7.957,-2.057c-5.864,0.824 -9.963,6.265 -9.14,12.128c2.779,20.733 4.88,35.525 6.419,46.325c3.89,27.357 4.548,32.015 4.662,51.373c4.861,-8.408 13.949,-14.082 24.339,-14.082Z" style="fill:#0c7ceb;fill-rule:nonzero;"/><path d="M129.883,119.94c-5.33,0 -10.03,-2.74 -12.775,-6.881c-3.001,8.035 -10.754,13.774 -19.828,13.774l-7.592,-0c6.787,4.317 11.308,11.902 11.308,20.527l-0,6.632c-0,1.046 -0.848,1.894 -1.894,1.894c-1.046,-0 -1.893,-0.848 -1.893,-1.894l0,-6.632c0,-11.319 -9.206,-20.527 -20.528,-20.527c-1.046,-0 -1.894,-0.848 -1.894,-1.894c0,-1.045 0.848,-1.893 1.894,-1.893l20.599,0c4.284,0 8.198,-1.564 11.232,-4.14c1.543,-1.312 2.85,-2.889 3.858,-4.661c1.387,-2.424 2.196,-5.209 2.262,-8.178c0.005,-0.131 0.019,-0.259 0.019,-0.391c0,-0.269 -0.038,-0.528 -0.08,-0.786c-0.01,-0.06 -0.005,-0.124 -0.014,-0.183c-0.455,-2.324 -2.504,-4.085 -4.961,-4.085l-40.81,0c-13.405,0 -24.315,10.908 -24.315,24.317c-0,14.482 5.448,27.564 15.335,36.835c9.713,9.102 22.971,13.832 36.371,12.956c25.366,-1.643 45.241,-23.647 45.241,-50.095l-0,-9.966c-2.812,3.222 -6.934,5.271 -11.535,5.271Z" style="fill:#0c7ceb;fill-rule:nonzero;"/><path d="M129.883,76.677c-6.362,0 -11.54,5.176 -11.54,11.537l0,16.248c0.057,0.398 0.095,0.801 0.095,1.214c-0,0.097 -0.005,0.193 -0.005,0.29c0.672,5.727 5.548,10.187 11.45,10.187c6.362,0 11.535,-5.175 11.535,-11.537l-0,-16.402c-0,-6.361 -5.173,-11.537 -11.535,-11.537Z" style="fill:#0c7ceb;fill-rule:nonzero;"/><path d="M99.292,65.181c-0.171,0.057 -0.336,0.117 -0.497,0.182c-0.166,0.066 -0.332,0.135 -0.493,0.207c-0.17,0.077 -0.34,0.159 -0.506,0.244c-0.147,0.074 -0.289,0.149 -0.436,0.23c-0.179,0.102 -0.355,0.21 -0.525,0.321c-0.123,0.079 -0.246,0.156 -0.369,0.239c-0.185,0.129 -0.365,0.266 -0.54,0.405c-0.104,0.08 -0.208,0.158 -0.307,0.242c-2.523,2.118 -4.137,5.291 -4.137,8.836l-0,20.749l18.114,-0c1.841,-0 3.545,0.564 4.961,1.528l-0,-22.277c-0,-5.964 -4.549,-10.886 -10.357,-11.478c-0.388,-0.039 -0.781,-0.059 -1.179,-0.059c-0.369,-0 -0.738,0.021 -1.098,0.055c-0.146,0.014 -0.293,0.039 -0.44,0.059c-0.208,0.028 -0.421,0.057 -0.629,0.097c-0.176,0.033 -0.346,0.075 -0.516,0.116c-0.175,0.042 -0.351,0.086 -0.526,0.136c-0.175,0.051 -0.35,0.108 -0.52,0.168Z" style="fill:#0c7ceb;fill-rule:nonzero;"/></g></svg>